<?xml version="1.0" standalone="no"?>
<!DOCTYPE svg PUBLIC "-//W3C//DTD SVG 1.1//EN" "http://www.w3.org/Graphics/SVG/1.1/DTD/svg11.dtd" >
<svg xmlns="http://www.w3.org/2000/svg" xmlns:xlink="http://www.w3.org/1999/xlink" version="1.1">
<metadata></metadata>
<defs>
<font id="chronicnormal" horiz-adv-x="1683" >
<font-face units-per-em="2048" ascent="1638" descent="-410" />
<missing-glyph horiz-adv-x="696" />
<glyph horiz-adv-x="0" />
<glyph horiz-adv-x="682" />
<glyph unicode=" "  horiz-adv-x="696" />
<glyph unicode="&#x09;" horiz-adv-x="696" />
<glyph unicode="&#xa0;" horiz-adv-x="696" />
<glyph unicode="!" horiz-adv-x="561" d="M41 287v190l162 125v832h155v-711l162 125v-189l-162 -124v-318h-155v195zM203 -41v156h155v-156h-155z" />
<glyph unicode="&#x22;" horiz-adv-x="473" d="M41 1331l100 273h117l-100 -273h-117zM215 1331l100 273h117l-100 -273h-117z" />
<glyph unicode="#" horiz-adv-x="1310" d="M94 369l37 127h184l119 422h-198l36 126h199l121 431h143l-121 -431h287l121 431h143l-121 -431h175l-37 -126h-174l-119 -422h188l-37 -127h-188l-115 -410h-143l115 410h-287l-115 -410h-143l115 410h-185zM459 496h286l119 422h-286z" />
<glyph unicode="$" horiz-adv-x="1003" d="M41 260l131 84q65 -100 128 -144.5t149 -60.5v563q-180 89 -251.5 182.5t-66.5 233.5q4 137 91.5 229t226.5 111v88h157v-90q95 -18 163 -61t136 -133l-123 -95q-52 66 -89 92t-87 37v-497q85 -42 144.5 -81t112 -92.5t77.5 -122.5t23 -153q-4 -148 -102 -247t-255 -121 v-88h-157v88q-135 17 -229.5 81t-178.5 197zM287 1114q-2 -75 30.5 -126.5t131.5 -108.5v421q-74 -15 -117.5 -64t-44.5 -122zM606 139q89 19 143.5 76.5t57.5 138.5q2 88 -43 149t-158 122v-486z" />
<glyph unicode="%" horiz-adv-x="1505" d="M20 1055q0 122 86 207.5t209 85.5q120 0 205.5 -86t85.5 -207q0 -120 -85.5 -205.5t-205.5 -85.5q-123 0 -209 85.5t-86 205.5zM51 -39l1180 1514h194l-1179 -1514h-195zM170 1055q0 -59 42.5 -101.5t102.5 -42.5q57 0 99.5 43t42.5 101q0 59 -42 100t-100 41 q-60 0 -102.5 -40.5t-42.5 -100.5zM866 379q0 120 86 206.5t207 86.5q120 0 207.5 -86.5t87.5 -206.5q0 -122 -87 -208.5t-208 -86.5q-122 0 -207.5 86t-85.5 209zM1018 379q0 -60 40.5 -100.5t100.5 -40.5q59 0 100 40.5t41 100.5q0 57 -41.5 99t-99.5 42q-59 0 -100 -41.5 t-41 -99.5z" />
<glyph unicode="'" horiz-adv-x="299" d="M41 1331l100 273h117l-100 -273h-117z" />
<glyph unicode="(" horiz-adv-x="667" d="M41 262v199l158 125v127q0 130 0.5 190.5t3 162t8 146.5t16 118.5t26 104t39 77t54.5 64.5t72 40t93 28.5t116 6.5v-176q-63 0 -106.5 -15t-71.5 -63.5t-43.5 -92.5t-22.5 -150.5t-8.5 -185.5t-1.5 -247l174 135v-199l-172 -137q0 -93 3 -158t9.5 -128t18 -103.5t30 -76 t45.5 -55t62.5 -30t83.5 -10.5v-176q-87 0 -151.5 14.5t-111 47.5t-76.5 78.5t-48.5 117t-27 151.5t-11.5 193z" />
<glyph unicode=")" horiz-adv-x="667" d="M41 -41q131 0 185 86q52 83 63 309q4 98 4 359v116l-174 136v202l172 -135q-9 246 -59.5 344.5t-190.5 98.5v174q58 0 105.5 -6t86.5 -21t69.5 -34t54.5 -50t41 -64t29.5 -82t20 -97t12.5 -115.5t6.5 -132.5t2.5 -152l158 -123v-203l-158 125q0 -152 -1 -228.5t-6.5 -187 t-16.5 -161.5t-31 -121t-51 -99t-76 -61.5t-105.5 -42.5t-140.5 -10v176z" />
<glyph unicode="*" horiz-adv-x="829" d="M41 1280l246 -80l49 150l-246 80zM135 991l127 -94l152 209l-127 94zM317 1210l97 -71l96 67l-35 117h-121zM336 1350h162v258h-162v-258zM414 1106l153 -209l129 90l-153 209zM498 1350l45 -154l245 82l-45 152z" />
<glyph unicode="+" horiz-adv-x="1013" d="M41 686v156h389v389h156v-389h387v-156h-387v-387h-156v387h-389z" />
<glyph unicode="," horiz-adv-x="321" d="M41 -276h96l144 276h-119z" />
<glyph unicode="-" horiz-adv-x="1013" d="M41 537h932v155h-932v-155z" />
<glyph unicode="." horiz-adv-x="237" d="M41 0h156v156h-156v-156z" />
<glyph unicode="/" horiz-adv-x="909" d="M20 -41l777 1516h153l-776 -1516h-154z" />
<glyph unicode="0" horiz-adv-x="1093" d="M41 717q0 66 2 112.5t10.5 129t31 157.5t58.5 137l2 2l-82 140l138 80l53 -93l2 2q118 86 289 86q105 0 188 -32.5t135 -79t90 -121.5t55.5 -135t27.5 -147t11 -129.5t1 -108.5q0 -64 -2 -111.5t-11 -129t-32.5 -157t-59.5 -137.5v-2l82 -139l-137 -82l-53 94l-4 -2 q-116 -88 -291 -88q-104 0 -186.5 32.5t-134 79t-89 122t-55 136t-27.5 147.5t-11 129t-1 108zM199 717q0 -321 80 -457.5t266 -136.5q138 0 211 67l2 3l-516 892l-4 -8q-39 -130 -39 -360zM334 1241l518 -893l2 10q39 130 39 359q0 322 -80 459t-268 137q-130 0 -207 -68z " />
<glyph unicode="1" horiz-adv-x="593" d="M41 0v156h178v92h-178v155h178v875h-178v156h334v-1031h178v-155h-178v-92h178v-156h-512z" />
<glyph unicode="2" horiz-adv-x="948" d="M41 0v80q0 85 22 163t53.5 135.5t83.5 118t94.5 99.5t104.5 90l2 2v621l-4 -2q-40 -9 -71 -27t-48 -36t-28.5 -39t-14.5 -32t-4 -18l-14 -76l-156 23l13 78q5 33 19.5 69.5t47 77.5t76 73t113 53.5t151.5 21.5q167 0 281.5 -114t114.5 -280q0 -46 -10.5 -90t-25.5 -79 t-44 -74t-51.5 -65t-63.5 -62.5t-66 -56.5t-71 -56q-60 -48 -93 -75t-81.5 -74t-75.5 -85.5t-51.5 -92t-34.5 -109.5v-4h698v-158h-866zM563 817l6 6q69 64 109.5 123.5t40.5 134.5q0 73 -42 133t-110 86l-4 3v-486z" />
<glyph unicode="3" horiz-adv-x="976" d="M41 408v79h160v-79q0 -74 35 -136l2 -4l391 391l-4 3q-57 32 -136 32h-45v162h45q94 0 162 67t68 162q0 94 -68 162t-162 68q-93 0 -160 -66t-69 -159h-162q2 158 116.5 271.5t274.5 113.5t275 -115t115 -275q0 -87 -36.5 -165.5t-103.5 -135.5l-4 -2l4 -4 q93 -63 145 -160.5t52 -209.5q0 -185 -131.5 -317t-315.5 -132q-122 0 -225 60.5t-163 164t-60 224.5zM354 154l4 -2q64 -31 131 -31q119 0 203 83.5t84 203.5q0 69 -31 129l-4 6z" />
<glyph unicode="4" horiz-adv-x="999" d="M41 193l547 1241h174l-479 -1084h434v297h157v-297h84v-157h-84v-193h-157v193h-90v-193h-160v193h-426z" />
<glyph unicode="5" horiz-adv-x="1081" d="M41 131l106 117q17 -14 41.5 -29t74.5 -41t117.5 -42.5t137.5 -16.5q41 0 81 5t94 25.5t93 53.5t67 96t28 147q0 76 -21.5 134.5t-59.5 93.5t-77.5 55.5t-85.5 30.5l-4 2v-311h-160v319h-4q-49 -6 -100 -23.5t-77 -32.5l-26 -14l-141 -88l94 822h680v-158h-537l-43 -379 l7 2q73 25 143 31h4v186h160v-192h2q190 -32 297.5 -159t107.5 -319q0 -221 -143 -354t-379 -133q-92 0 -180.5 22.5t-150 55.5t-95.5 55.5t-51 38.5z" />
<glyph unicode="6" horiz-adv-x="1048" d="M41 410q0 130 55 231l2 4l424 789h180l-309 -578l-4 -6h8q25 7 78 10l2 2l223 414h181l-226 -420l-2 -6h6q164 -37 256.5 -153t92.5 -287q0 -206 -131.5 -328.5t-352.5 -122.5t-352 122.5t-131 328.5zM201 410q0 -31 2 -45l2 -15l178 332l-12 -4q-85 -33 -133 -109l-2 -4 q-35 -57 -35 -155zM297 184l2 -2q84 -65 225 -65q36 0 71.5 4.5t83.5 23t83.5 48t60.5 86t25 131.5q0 65 -19 116.5t-47 82t-67 51t-72 29t-68 11.5h-2z" />
<glyph unicode="7" horiz-adv-x="1013" d="M41 1268v166h932l-715 -1434h-180l641 1268h-96l-324 -643h-154l304 643h-408z" />
<glyph unicode="8" horiz-adv-x="1058" d="M41 418q0 -209 132 -334t355 -125t356.5 125t133.5 334q0 124 -52 223t-147 158l-6 2l4 4q135 107 135 289q0 167 -119 274t-305 107q-187 0 -304.5 -106.5t-117.5 -274.5q0 -180 134 -289l4 -4l-4 -2q-95 -59 -147 -158t-52 -223zM203 418q0 244 241 287h5v-283h159v283 h6q242 -44 242 -287q0 -55 -13.5 -100.5t-34.5 -75.5t-50.5 -53t-59 -35.5t-63 -20.5t-58 -10t-49.5 -2t-49.5 2t-57.5 10t-62 20.5t-58.5 35.5t-50.5 53t-34 75.5t-13 100.5zM266 1094q0 28 6.5 55t24 59t54.5 57.5t91 37.5l7 2v-424l-7 2q-54 14 -91 40t-54.5 58t-24 59 t-6.5 54zM608 881v424l6 -2q54 -12 92 -37.5t55 -57.5t23.5 -59t6.5 -55q0 -27 -6.5 -54t-23.5 -59t-55 -58t-92 -40z" />
<glyph unicode="9" horiz-adv-x="1044" d="M41 1022q0 207 130.5 330t350.5 123t351 -123t131 -330q0 -111 -39 -199v-4l-367 -819h-174l264 592l-8 -2q-60 -13 -88 -15h-2l-258 -575h-176l258 580l-4 2q-174 29 -271.5 145.5t-97.5 294.5zM199 1022q0 -75 25 -131t60 -85.5t83 -47.5t83 -22.5t72 -4.5t72 4.5 t83.5 22.5t83.5 47.5t60 85.5t25 131q0 76 -25 132.5t-60 86.5t-83 48.5t-84 23t-72 4.5t-71.5 -4.5t-83.5 -23t-83 -48.5t-60 -86.5t-25 -132.5z" />
<glyph unicode=":" horiz-adv-x="237" d="M41 332h156v155h-156v-155zM41 741h156v156h-156v-156z" />
<glyph unicode=";" horiz-adv-x="321" d="M41 -276h96l144 276h-119zM160 82h121v121h-121v-121z" />
<glyph unicode="&#x3c;" horiz-adv-x="907" d="M41 709l825 569v-205l-528 -364l528 -365v-207z" />
<glyph unicode="=" horiz-adv-x="1218" d="M41 424h1137v156h-1137v-156zM41 772h1137v156h-1137v-156z" />
<glyph unicode="&#x3e;" horiz-adv-x="907" d="M41 137v207l528 365l-528 364v205l825 -569z" />
<glyph unicode="?" horiz-adv-x="901" d="M41 1096l10 84q5 33 20.5 69t48 77.5t77 73.5t114 53.5t152.5 21.5q166 0 281.5 -115t115.5 -281q0 -324 -264 -483q-61 -35 -86.5 -93t-30.5 -138h-164q5 127 41.5 211.5t135.5 150.5q142 93 184 223l-293 -178v166l305 184q-14 78 -74.5 131.5t-150.5 53.5 q-60 0 -107 -15t-71.5 -34.5t-41 -44t-21 -38t-5.5 -22.5l-14 -82zM313 0v168h168v-168h-168z" />
<glyph unicode="A" d="M41 0l731 1434h135l735 -1434h-167l-134 231h-700l-135 -231h-164l133 231h-133l-135 -231h-166zM408 399h565l-266 533zM772 1100l369 -701h131l-430 832z" />
<glyph unicode="B" horiz-adv-x="1257" d="M41 0v1434h672q148 0 253 -106t105 -255q0 -129 -98 -235q111 -56 177.5 -162.5t66.5 -233.5q0 -183 -130 -312.5t-313 -129.5h-733zM199 158h55l442 567h-497v-567zM199 883h514q84 0 142 54t58 136q0 85 -58.5 144t-141.5 59h-514v-393zM426 158h348q119 0 202 83 t83 201q0 94 -56.5 169.5t-144.5 101.5z" />
<glyph unicode="C" horiz-adv-x="1384" d="M41 713q0 150 56 286t161 242q106 106 242.5 162.5t285.5 56.5q150 0 286.5 -56.5t242.5 -162.5l28 -27l-110 -110l-29 26q-83 85 -191 130t-227 45q-112 0 -215 -41v-1100q103 -41 215 -41q246 0 418 172l29 29l110 -111l-28 -29q-106 -105 -242.5 -161t-286.5 -56 q-149 0 -285.5 56.5t-242.5 160.5q-104 106 -160.5 243t-56.5 286zM203 635q25 -196 166 -340q46 -40 47 -41v381h-213zM203 791h213v383q-24 -21 -47 -44q-141 -141 -166 -339z" />
<glyph unicode="D" horiz-adv-x="1490" d="M41 0v1434h688q146 0 279.5 -55.5t230.5 -150.5t154 -227t57 -278q0 -147 -57.5 -281t-154 -230.5t-230 -154t-279.5 -57.5h-688zM199 158h407l-407 317v-317zM199 670l215 -168l565 715q-121 59 -250 59h-530v-606zM535 408l307 -238q193 39 321.5 194.5t128.5 358.5 q0 239 -186 407z" />
<glyph unicode="E" horiz-adv-x="1253" d="M41 0v1434h1139v-158h-811l516 -651h231v-158h-917v-309h1013v-158h-1171zM199 625h516l-516 651v-651z" />
<glyph unicode="F" horiz-adv-x="1153" d="M41 0v1434h1071v-158h-913v-393h815v-158h-406l-409 -524v-201h-158zM199 451l215 274h-215v-274z" />
<glyph unicode="G" horiz-adv-x="1386" d="M40 716.5q0 141.5 56 281.5t164 247q106 106 242.5 162.5t285.5 56.5q151 0 288 -56.5t243 -162.5l27 -26l-111 -111l-27 27q-174 174 -420 174q-243 0 -417 -174q-113 -114 -153 -267q-20 -76 -20 -152t20 -152q40 -152 153 -265q174 -174 417 -174q55 0 130 14v381 h-162v156h585v-674h-157v80q-179 -113 -396 -113q-149 0 -285.5 56.5t-242.5 162.5q-108 107 -164 247t-56 281.5zM1073 199q76 45 111 80v241h-111v-321z" />
<glyph unicode="H" horiz-adv-x="1290" d="M41 0v1434h158v-904h180l713 904h157v-1434h-157v373h-893v-373h-158zM551 530h541v682z" />
<glyph unicode="I" horiz-adv-x="1007" d="M41 0v158h383v1118h-383v158h926v-158h-385v-744l292 -374h93v-158h-926zM582 158h135l-135 172v-172z" />
<glyph unicode="J" horiz-adv-x="989" d="M41 207l131 88q115 -170 332 -170q126 0 206.5 65.5t80.5 169.5v86q-116 -81 -287 -81v157q126 0 206.5 65.5t80.5 168.5v262h-355v158h355v100h-355v158h512v-1074q0 -173 -124 -283t-320 -110q-299 0 -463 240z" />
<glyph unicode="K" horiz-adv-x="1216" d="M41 0v1434h158v-799l669 799h181l-535 -639l662 -795h-179l-573 688l-62 -74l515 -614h-179l-426 508l-73 -88v-420h-158z" />
<glyph unicode="L" horiz-adv-x="1056" d="M41 0v1434h158v-502l604 -774h213v-158h-975zM199 158h446l-446 573v-573z" />
<glyph unicode="M" horiz-adv-x="1640" d="M41 0v1434h209l352 -754h436l353 754h208v-1434h-157v543l-250 -543h-164l414 895v270l-543 -1165h-158l-542 1165v-1165h-158zM674 522l147 -321l146 321h-293z" />
<glyph unicode="N" horiz-adv-x="1357" d="M41 0v1434h176l678 -877v295h158v-502l106 -141v1225h158v-1434h-207l-647 840v-840h-158v1044l-106 140v-1184h-158z" />
<glyph unicode="O" horiz-adv-x="1574" d="M41 717q0 152 59 290t159.5 238.5t238.5 159.5t290 59q219 0 396 -114l90 114l119 -94l-88 -115q108 -103 168.5 -242t60.5 -296q0 -203 -100 -375t-271.5 -272.5t-374.5 -100.5q-213 0 -397 115l-88 -115l-121 94l88 115q-108 105 -168.5 244.5t-60.5 294.5zM197 717 q0 -119 45.5 -226t126.5 -188l718 924q-141 82 -299 82q-160 0 -296.5 -79.5t-215.5 -216t-79 -296.5zM487 209q141 -82 301 -82t296 79t215 215t79 296q0 119 -45 227t-125 189z" />
<glyph unicode="P" horiz-adv-x="1179" d="M41 0v1434h741q148 0 252.5 -104.5t104.5 -252.5t-104.5 -252t-252.5 -104h-585v-721h-156zM197 877h227l313 401h-540v-401zM582 877h200q83 0 141 58.5t58 141.5q0 56 -28.5 103.5t-75.5 72.5z" />
<glyph unicode="Q" horiz-adv-x="1574" d="M41 717q0 152 59 290t158.5 238.5t237.5 159.5t290 59t290.5 -59t238.5 -159.5t159.5 -238.5t59.5 -290q0 -161 -66 -306t-186 -253l100 -168l-133 -80l-94 158q-174 -97 -369 -97q-152 0 -290 59t-237.5 159t-158.5 238t-59 290zM197 717q0 -160 78.5 -296t214.5 -215 t296 -79h5l-521 874q-73 -130 -73 -284zM371 1137l587 -983q60 15 117 49l-112 186l135 80l102 -174q85 85 131.5 194.5t46.5 227.5q0 160 -79.5 296.5t-216 216t-296.5 79.5q-119 0 -226.5 -45.5t-188.5 -126.5z" />
<glyph unicode="R" horiz-adv-x="1202" d="M41 0v1434h709q172 0 280.5 -124t108.5 -319q0 -149 -67 -260.5t-183 -155.5l272 -575h-174l-260 551h-530v-551h-156zM197 707h385l-385 493v-493zM309 1278l445 -571q101 1 164 80t63 204q0 126 -64.5 206.5t-166.5 80.5h-441z" />
<glyph unicode="S" horiz-adv-x="1009" d="M41 254l133 84l21 -33q41 -67 104 -108l291 432l-33 18l-113 58q-176 86 -246 179q-68 89 -67 223v11q3 158 117 255q107 91 267 91h20q226 -6 352 -172l24 -30l-125 -95l-24 31q-80 105 -232 111h-8q-102 0 -166 -51q-66 -53 -69 -144v-7q1 -81 43 -137q44 -58 184 -126 l113 -58q78 -38 133 -74t107 -88q52 -54 78 -124q24 -65 24 -144v-12q-6 -172 -133 -276q-121 -100 -304 -99h-18q-302 12 -451 252zM410 141q61 -14 108 -14h19q113 1 189 57q82 62 85 164v14q1 58 -21 103q-24 50 -83 94z" />
<glyph unicode="T" horiz-adv-x="1302" d="M41 1278v156h1221v-156l-533 -682v-596h-156v1278h-532zM729 811l363 467h-363v-467z" />
<glyph unicode="U" horiz-adv-x="1515" d="M41 684v750h156v-750q0 -127 54 -239.5t148 -190.5l920 1180h156v-750q0 -145 -57 -278t-153 -229t-229 -153t-278 -57t-278 57t-229 153t-153 229t-57 278zM530 172q106 -47 228 -47q152 0 281 74.5t204.5 203.5t75.5 281v500z" />
<glyph unicode="V" d="M41 1434h176l459 -897l459 897h176l-547 -1069l78 -154l624 1223h176l-733 -1434h-135z" />
<glyph unicode="W" horiz-adv-x="1904" d="M41 1434h168l340 -840l178 444l-160 396h170l74 -187l76 187h170l-160 -396l55 -137l215 533h170l-301 -742l178 -444l480 1186h170l-580 -1434h-137l-195 483l-194 -483h-137zM633 385l55 -137l180 444l-57 137z" />
<glyph unicode="X" horiz-adv-x="1435" d="M41 0l573 737l-542 697h207l272 -351l270 351h209l-377 -484l64 -80l442 564h203l-541 -697l574 -737h-207l-303 389l-303 -389h-209l407 524l-61 80l-471 -604h-207z" />
<glyph unicode="Y" horiz-adv-x="1468" d="M41 1434h195l339 -494l347 494h161l-428 -611l80 -114l498 725h194l-614 -875v-102h154v-158h-154v-299h-158v299h-153v158h153v102z" />
<glyph unicode="Z" horiz-adv-x="1294" d="M41 0v176l426 463h-119v156h230v483h-476v156h1151v-166l-436 -473h129v-156h-229v-483h536v-156h-1212zM229 156h332v360zM735 930l320 348h-320v-348z" />
<glyph unicode="[" horiz-adv-x="669" d="M41 262v201l160 123v1065h428v-176h-254v-752l174 133v-199l-174 -137v-561h254v-174h-428v600z" />
<glyph unicode="\" horiz-adv-x="909" d="M20 1475h154l715 -1516h-154z" />
<glyph unicode="]" horiz-adv-x="667" d="M41 -41h252v872l-174 134v202l174 -137v445h-252v176h428v-756l158 -123v-203l-158 125v-911h-428v176z" />
<glyph unicode="_" horiz-adv-x="849" d="M41 0h768v156h-768v-156z" />
<glyph unicode="`" horiz-adv-x="337" d="M41 1788l139 -272h117l-141 272h-115z" />
<glyph unicode="a" d="M41 0l731 1434h135l735 -1434h-167l-134 231h-700l-135 -231h-164l133 231h-133l-135 -231h-166zM408 399h565l-266 533zM772 1100l369 -701h131l-430 832z" />
<glyph unicode="b" horiz-adv-x="1605" d="M41 0v1434h1020q148 0 253 -106t105 -255q0 -129 -98 -235q111 -56 177.5 -162.5t66.5 -233.5q0 -183 -130 -312.5t-313 -129.5h-1081zM199 158h403l442 567h-845v-567zM199 883h862q84 0 142.5 54t58.5 136q0 85 -59 144t-142 59h-862v-393zM774 158h348q119 0 202 83 t83 201q0 94 -56.5 169.5t-144.5 101.5z" />
<glyph unicode="c" horiz-adv-x="1384" d="M41 713q0 150 56 286t161 242q106 106 242.5 162.5t285.5 56.5q150 0 286.5 -56.5t242.5 -162.5l28 -27l-110 -110l-29 26q-83 85 -191 130t-227 45q-112 0 -215 -41v-1100q103 -41 215 -41q246 0 418 172l29 29l110 -111l-28 -29q-106 -105 -242.5 -161t-286.5 -56 q-149 0 -285.5 56.5t-242.5 160.5q-104 106 -160.5 243t-56.5 286zM203 635q25 -196 166 -340q46 -40 47 -41v381h-213zM203 791h213v383q-24 -21 -47 -44q-141 -141 -166 -339z" />
<glyph unicode="d" horiz-adv-x="1943" d="M41 0v1434h1145q145 0 278 -57t229 -153t153 -229t57 -278t-57 -278t-153 -229t-229 -153t-278 -57h-1145zM199 156h669l-669 522v-522zM199 870l477 -372l602 772q-62 8 -92 8h-987v-408zM797 406l317 -250h72q114 0 218 44.5t179 119.5t119.5 179t44.5 218 q0 163 -86.5 298.5t-228.5 205.5z" />
<glyph unicode="e" horiz-adv-x="1601" d="M41 0v1434h1487v-158h-1084l865 -651h155v-158h-1265v-309h1362v-158h-1520zM199 625h864l-864 651v-651z" />
<glyph unicode="f" horiz-adv-x="1357" d="M41 0v1434h1276v-158h-1118v-393h1020v-158h-611l-409 -524v-201h-158zM199 451l215 274h-215v-274z" />
<glyph unicode="g" horiz-adv-x="1386" d="M40 716.5q0 141.5 56 281.5t164 247q106 106 242.5 162.5t285.5 56.5q151 0 288 -56.5t243 -162.5l27 -26l-111 -111l-27 27q-174 174 -420 174q-243 0 -417 -174q-113 -114 -153 -267q-20 -76 -20 -152t20 -152q40 -152 153 -265q174 -174 417 -174q55 0 130 14v381 h-162v156h585v-674h-157v80q-179 -113 -396 -113q-149 0 -285.5 56.5t-242.5 162.5q-108 107 -164 247t-56 281.5zM1073 199q76 45 111 80v241h-111v-321z" />
<glyph unicode="h" horiz-adv-x="1617" d="M41 0v1434h158v-904h508l712 904h158v-1434h-158v373h-1220v-373h-158zM879 530h540v682z" />
<glyph unicode="i" horiz-adv-x="1212" d="M41 0v158h485v1118h-485v158h1130v-158h-487v-744l293 -374h194v-158h-1130zM684 158h135l-135 172v-172z" />
<glyph unicode="j" horiz-adv-x="989" d="M41 207l131 88q115 -170 332 -170q126 0 206.5 65.5t80.5 169.5v86q-116 -81 -287 -81v157q126 0 206.5 65.5t80.5 168.5v262h-355v158h355v100h-355v158h512v-1074q0 -173 -124 -283t-320 -110q-299 0 -463 240z" />
<glyph unicode="k" horiz-adv-x="1216" d="M41 0v1434h158v-799l669 799h181l-535 -639l662 -795h-179l-573 688l-62 -74l515 -614h-179l-426 508l-73 -88v-420h-158z" />
<glyph unicode="l" horiz-adv-x="1323" d="M41 0v1434h158v-473l632 -803h451v-158h-1241zM199 158h446l-446 573v-573z" />
<glyph unicode="m" horiz-adv-x="1961" d="M41 0v1434h209l450 -760h562l450 760h209v-1434h-158v686l-413 -686h-164l577 956v234l-704 -1190h-156l-704 1190v-1190h-158zM793 518l188 -317l188 317h-376z" />
<glyph unicode="n" horiz-adv-x="1744" d="M41 0v1434h174l1069 -983v395h156v-541l106 -96v1225h158v-1434h-162l-1083 999v-999h-156v1141h2l-108 100v-1241h-156z" />
<glyph unicode="o" horiz-adv-x="1574" d="M41 717q0 152 59 290t159.5 238.5t238.5 159.5t290 59q219 0 396 -114l90 114l119 -94l-88 -115q108 -103 168.5 -242t60.5 -296q0 -203 -100 -375t-271.5 -272.5t-374.5 -100.5q-213 0 -397 115l-88 -115l-121 94l88 115q-108 105 -168.5 244.5t-60.5 294.5zM197 717 q0 -119 45.5 -226t126.5 -188l718 924q-141 82 -299 82q-160 0 -296.5 -79.5t-215.5 -216t-79 -296.5zM487 209q141 -82 301 -82t296 79t215 215t79 296q0 119 -45 227t-125 189z" />
<glyph unicode="p" horiz-adv-x="1384" d="M41 0v1434h946q148 0 252 -104.5t104 -252.5t-104 -252t-252 -104h-790v-721h-156zM197 877h432l313 401h-745v-401zM786 877h201q83 0 141 58.5t58 141.5q0 56 -29 103.5t-76 72.5z" />
<glyph unicode="q" horiz-adv-x="1574" d="M41 717q0 152 59 290t158.5 238.5t237.5 159.5t290 59t290.5 -59t238.5 -159.5t159.5 -238.5t59.5 -290q0 -161 -66 -306t-186 -253l100 -168l-133 -80l-94 158q-174 -97 -369 -97q-152 0 -290 59t-237.5 159t-158.5 238t-59 290zM197 717q0 -160 78.5 -296t214.5 -215 t296 -79h5l-521 874q-73 -130 -73 -284zM371 1137l587 -983q60 15 117 49l-112 186l135 80l102 -174q85 85 131.5 194.5t46.5 227.5q0 160 -79.5 296.5t-216 216t-296.5 79.5q-119 0 -226.5 -45.5t-188.5 -126.5z" />
<glyph unicode="r" horiz-adv-x="1603" d="M41 0v1434h1110q172 0 280.5 -124t108.5 -319q0 -149 -68 -260.5t-184 -155.5l275 -575h-174l-261 551h-929v-551h-158zM199 707h784l-444 571h-340v-571zM711 1278l444 -571q100 2 163.5 81t63.5 203q0 126 -64.5 206.5t-166.5 80.5h-440z" />
<glyph unicode="s" horiz-adv-x="1009" d="M41 254l133 84l21 -33q41 -67 104 -108l291 432l-33 18l-113 58q-176 86 -246 179q-68 89 -67 223v11q3 158 117 255q107 91 267 91h20q226 -6 352 -172l24 -30l-125 -95l-24 31q-80 105 -232 111h-8q-102 0 -166 -51q-66 -53 -69 -144v-7q1 -81 43 -137q44 -58 184 -126 l113 -58q78 -38 133 -74t107 -88q52 -54 78 -124q24 -65 24 -144v-12q-6 -172 -133 -276q-121 -100 -304 -99h-18q-302 12 -451 252zM410 141q61 -14 108 -14h19q113 1 189 57q82 62 85 164v14q1 58 -21 103q-24 50 -83 94z" />
<glyph unicode="t" horiz-adv-x="1466" d="M41 1278v156h1384v-156l-614 -682v-596h-156v1278h-614zM811 799l436 479h-436v-479z" />
<glyph unicode="u" horiz-adv-x="1515" d="M41 684v750h156v-750q0 -127 54 -239.5t148 -190.5l920 1180h156v-750q0 -145 -57 -278t-153 -229t-229 -153t-278 -57t-278 57t-229 153t-153 229t-57 278zM530 172q106 -47 228 -47q152 0 281 74.5t204.5 203.5t75.5 281v500z" />
<glyph unicode="v" d="M41 1434h176l459 -897l459 897h176l-547 -1069l78 -154l624 1223h176l-733 -1434h-135z" />
<glyph unicode="w" horiz-adv-x="1904" d="M41 1434h168l340 -840l178 444l-160 396h170l74 -187l76 187h170l-160 -396l55 -137l215 533h170l-301 -742l178 -444l480 1186h170l-580 -1434h-137l-195 483l-194 -483h-137zM633 385l55 -137l180 444l-57 137z" />
<glyph unicode="x" horiz-adv-x="1435" d="M41 0l573 737l-542 697h207l272 -351l270 351h209l-377 -484l64 -80l442 564h203l-541 -697l574 -737h-207l-303 389l-303 -389h-209l407 524l-61 80l-471 -604h-207z" />
<glyph unicode="y" horiz-adv-x="1468" d="M41 1434h195l339 -494l347 494h161l-428 -611l80 -114l498 725h194l-614 -875v-102h154v-158h-154v-299h-158v299h-153v158h153v102z" />
<glyph unicode="z" horiz-adv-x="1644" d="M41 0v176l565 463h-92v156h229v483h-641v156h1502v-181l-562 -458h88v-156h-229v-483h703v-156h-1563zM262 156h481v395zM901 879l485 399h-485v-399z" />
<glyph unicode="{" horiz-adv-x="743" d="M41 219l238 72q-3 53 -3 110q0 97 -69 166.5t-166 69.5v160q97 0 166 69t69 164q0 99 5 173.5t17.5 141.5t34 114.5t53.5 85.5t77 60.5t104 34t135 11.5v-176q-145 0 -198 -100.5t-53 -344.5q0 -203 -129 -315q129 -106 129 -314q0 -39 2 -55l108 33l141 -141l-235 -70 q22 -110 77 -159.5t158 -49.5v-176q-194 0 -287.5 77.5t-121.5 252.5l-113 -33z" />
<glyph unicode="|" horiz-adv-x="319" d="M82 -143h156v1720h-156v-1720z" />
<glyph unicode="}" horiz-adv-x="743" d="M41 -41q145 0 197.5 100t52.5 344q0 202 131 316q-131 108 -131 315v56l-109 -35l-141 141l235 70q-22 110 -77 159.5t-158 49.5v176q194 0 288 -78t122 -252l112 33l139 -140l-237 -71q2 -35 2 -109q0 -98 69 -166.5t166 -68.5v-162q-96 0 -165.5 -69.5t-69.5 -164.5 q0 -139 -10.5 -234t-37.5 -172.5t-75.5 -121.5t-122.5 -67t-180 -23v174z" />
<glyph unicode="~" horiz-adv-x="1208" d="M41 717l119 96q60 -73 144.5 -85.5t238.5 28.5q198 51 309 58.5t180 -23.5t135 -113l-120 -98q-36 44 -72.5 63.5t-101.5 19.5t-168 -26q-93 -24 -153 -37.5t-128.5 -23t-115.5 -5t-96.5 19.5t-90.5 46.5t-80 79.5z" />
<glyph unicode="&#xa1;" horiz-adv-x="561" d="M41 952v189l162 -125v201h155v-322l162 -127v-188l-162 125v-705h-155v827zM203 1319v156h155v-156h-155z" />
<glyph unicode="&#xa6;" horiz-adv-x="319" d="M82 -143h156v614h-156v-614zM82 963h156v614h-156v-614z" />
<glyph unicode="&#xa7;" horiz-adv-x="907" d="M41 -4l117 76q66 -103 135.5 -143.5t169.5 -43.5q112 -4 183.5 51t74.5 146q2 76 -36.5 129t-135.5 106v-167h-139v235q-167 84 -228.5 167t-58.5 206q3 120 74 194q-71 85 -68 219q5 139 103.5 224.5t250.5 79.5q108 -3 184.5 -44.5t147.5 -134.5l-108 -82 q-53 68 -103.5 94.5t-122.5 28.5q-97 3 -154.5 -42.5t-58.5 -127.5q-3 -68 25.5 -114.5t116.5 -96.5v195h139v-264q77 -37 128 -70.5t98.5 -80.5t70 -109t20.5 -140q-6 -116 -69 -196q64 -86 61 -213q-3 -152 -115 -244t-284 -86q-136 5 -234.5 62t-183.5 186zM260 756 q-2 -70 27.5 -117t122.5 -96v258q-102 57 -109 61q-41 -41 -41 -106zM549 471q107 -56 145 -84q33 57 33 105q2 77 -38 130t-140 107v-258z" />
<glyph unicode="&#xa8;" horiz-adv-x="395" d="M41 1516h117v116h-117v-116zM238 1516h116v116h-116v-116z" />
<glyph unicode="&#xab;" horiz-adv-x="923" d="M41 637l397 407l144 -77l-322 -330l322 -332l-144 -76zM342 637l397 407l144 -77l-322 -330l322 -332l-144 -76z" />
<glyph unicode="&#xac;" horiz-adv-x="1007" d="M41 766v156h926v-392h-156v236h-770z" />
<glyph unicode="&#xad;" horiz-adv-x="1013" d="M41 537h932v155h-932v-155z" />
<glyph unicode="&#xaf;" horiz-adv-x="505" d="M41 1516h424v106h-424v-106z" />
<glyph unicode="&#xb0;" horiz-adv-x="667" d="M41 1315q0 122 86 207.5t209 85.5q120 0 205.5 -86t85.5 -207q0 -120 -85.5 -205.5t-205.5 -85.5q-123 0 -209 85.5t-86 205.5zM190 1315q0 -59 43 -101.5t103 -42.5q57 0 99 43t42 101q0 59 -41.5 100t-99.5 41q-60 0 -103 -40.5t-43 -100.5z" />
<glyph unicode="&#xb1;" horiz-adv-x="1013" d="M41 41v156h932v-156h-932zM41 686v156h389v245h156v-245h387v-156h-387v-246h-156v246h-389z" />
<glyph unicode="&#xb4;" horiz-adv-x="339" d="M41 1516l141 272h117l-141 -272h-117z" />
<glyph unicode="&#xb7;" horiz-adv-x="237" d="M41 618h156v156h-156v-156z" />
<glyph unicode="&#xb8;" horiz-adv-x="417" d="M41.5 -272q0.5 82 58.5 139q36 39 95 53v82h94v-178h-51q-41 0 -68 -27q-29 -29 -29 -69t29 -68q28 -29 68 -29t69 29l70 -68q-58 -58 -140 -59t-139 55q-57 58 -56.5 140z" />
<glyph unicode="&#xbb;" horiz-adv-x="923" d="M41 305l321 332l-321 330l143 77l398 -407l-398 -408zM342 305l322 332l-322 330l143 77l398 -407l-398 -408z" />
<glyph unicode="&#xbf;" horiz-adv-x="901" d="M41 354q0 325 264 484q106 63 117 231h164q-5 -127 -41.5 -211.5t-134.5 -150.5q-90 -60 -136 -123l193 -193l-45 -186l-211 211q-2 -20 -2 -62q0 -90 62.5 -158.5t166.5 -68.5q60 0 107 15.5t70.5 33.5t41 45t21 37t6.5 23l14 81l162 -24l-12 -84q-5 -33 -20 -69.5 t-47 -77.5t-76.5 -73t-114 -53.5t-152.5 -21.5q-167 0 -282 114.5t-115 280.5zM420 1266v168h166v-168h-166z" />
<glyph unicode="&#xc0;" d="M41 0l731 1434h135l735 -1434h-167l-134 231h-700l-135 -231h-164l133 231h-133l-135 -231h-166zM408 399h565l-266 533zM616 1788l140 -272h116l-141 272h-115zM772 1100l369 -701h131l-430 832z" />
<glyph unicode="&#xc1;" d="M41 0l731 1434h135l735 -1434h-167l-134 231h-700l-135 -231h-164l133 231h-133l-135 -231h-166zM408 399h565l-266 533zM772 1100l369 -701h131l-430 832zM807 1516l141 272h117l-141 -272h-117z" />
<glyph unicode="&#xc2;" d="M41 0l731 1434h135l735 -1434h-167l-134 231h-700l-135 -231h-164l133 231h-133l-135 -231h-166zM408 399h565l-266 533zM653 1516l140 272h96l139 -272h-110l-78 159l-78 -159h-109zM772 1100l369 -701h131l-430 832z" />
<glyph unicode="&#xc3;" d="M41 0l731 1434h135l735 -1434h-167l-134 231h-700l-135 -231h-164l133 231h-133l-135 -231h-166zM408 399h565l-266 533zM575 1552v164h533v-164h-533zM772 1100l369 -701h131l-430 832z" />
<glyph unicode="&#xc4;" d="M41 0l731 1434h135l735 -1434h-167l-134 231h-700l-135 -231h-164l133 231h-133l-135 -231h-166zM408 399h565l-266 533zM686 1516h117v116h-117v-116zM772 1100l369 -701h131l-430 832zM883 1516h116v116h-116v-116z" />
<glyph unicode="&#xc5;" d="M41 0l731 1434h135l735 -1434h-167l-134 231h-700l-135 -231h-164l133 231h-133l-135 -231h-166zM408 399h565l-266 533zM725 1634q0 -49 34.5 -83.5t84.5 -34.5t85.5 34.5t35.5 83.5q0 51 -35.5 86t-85.5 35t-84.5 -35t-34.5 -86zM772 1100l369 -701h131l-430 832z M805 1634q0 17 11 29t28 12t28 -12t11 -29t-11 -28t-28 -11t-28 11t-11 28z" />
<glyph unicode="&#xc7;" horiz-adv-x="1384" d="M41 713q0 150 56 286t161 242q106 106 242.5 162.5t285.5 56.5q150 0 286.5 -56.5t242.5 -162.5l28 -27l-110 -110l-29 26q-83 85 -191 130t-227 45q-112 0 -215 -41v-1100q103 -41 215 -41q246 0 418 172l29 29l110 -111l-28 -29q-99 -99 -227.5 -155t-270.5 -62v-143 h-51q-41 0 -68 -27q-29 -29 -29 -69t29 -68q28 -29 68.5 -29t69.5 29l69 -68q-58 -58 -139.5 -59t-138.5 55q-57 58 -56.5 140t58.5 139q36 39 94 53v49q-269 22 -465 215q-104 106 -160.5 243t-56.5 286zM203 635q25 -196 166 -340q46 -40 47 -41v381h-213zM203 791h213 v383q-24 -21 -47 -44q-141 -141 -166 -339z" />
<glyph unicode="&#xc8;" horiz-adv-x="1253" d="M41 0v1434h1139v-158h-811l516 -651h231v-158h-917v-309h1013v-158h-1171zM199 625h516l-516 651v-651zM430 1788l139 -272h117l-141 272h-115z" />
<glyph unicode="&#xc9;" horiz-adv-x="1253" d="M41 0v1434h1139v-158h-811l516 -651h231v-158h-917v-309h1013v-158h-1171zM199 625h516l-516 651v-651zM584 1516l141 272h117l-142 -272h-116z" />
<glyph unicode="&#xca;" horiz-adv-x="1253" d="M41 0v1434h1139v-158h-811l516 -651h231v-158h-917v-309h1013v-158h-1171zM199 625h516l-516 651v-651zM451 1516l139 272h96l139 -272h-110l-78 159l-78 -159h-108z" />
<glyph unicode="&#xcb;" horiz-adv-x="1253" d="M41 0v1434h1139v-158h-811l516 -651h231v-158h-917v-309h1013v-158h-1171zM199 625h516l-516 651v-651zM492 1516h116v116h-116v-116zM688 1516h117v116h-117v-116z" />
<glyph unicode="&#xcc;" horiz-adv-x="1007" d="M41 0v158h383v1118h-383v158h926v-158h-385v-744l292 -374h93v-158h-926zM283 1788l139 -272h117l-142 272h-114zM582 158h135l-135 172v-172z" />
<glyph unicode="&#xcd;" horiz-adv-x="1007" d="M41 0v158h383v1118h-383v158h926v-158h-385v-744l292 -374h93v-158h-926zM477 1516l141 272h117l-141 -272h-117zM582 158h135l-135 172v-172z" />
<glyph unicode="&#xce;" horiz-adv-x="1007" d="M41 0v158h383v1118h-383v158h926v-158h-385v-744l292 -374h93v-158h-926zM317 1516l140 272h96l139 -272h-110l-78 159l-78 -159h-109zM582 158h135l-135 172v-172z" />
<glyph unicode="&#xcf;" horiz-adv-x="1007" d="M41 0v158h383v1118h-383v158h926v-158h-385v-744l292 -374h93v-158h-926zM348 1516h117v116h-117v-116zM545 1516h117v116h-117v-116zM582 158h135l-135 172v-172z" />
<glyph unicode="&#xd0;" horiz-adv-x="1490" d="M41 0v1434h688q146 0 279.5 -55.5t230.5 -150.5t154 -227t57 -278q0 -147 -57.5 -281t-154 -230.5t-230 -154t-279.5 -57.5h-688zM186 1516h932v155h-932v-155zM199 158h407l-407 317v-317zM199 670l215 -168l565 715q-121 59 -250 59h-530v-606zM535 408l307 -238 q193 39 321.5 194.5t128.5 358.5q0 239 -186 407z" />
<glyph unicode="&#xd1;" horiz-adv-x="1359" d="M41 0v1434h176l944 -1225v231l-297 387l133 103l164 -215v719h158v-1434h-207l-913 1182v-199l319 -420l-131 -100l-188 244v-707h-158zM440 1552v164h533v-164h-533z" />
<glyph unicode="&#xd2;" horiz-adv-x="1574" d="M41 717q0 152 59 290t159.5 238.5t238.5 159.5t290 59q219 0 396 -114l90 114l119 -94l-88 -115q108 -103 168.5 -242t60.5 -296q0 -203 -100 -375t-271.5 -272.5t-374.5 -100.5q-213 0 -397 115l-88 -115l-121 94l88 115q-108 105 -168.5 244.5t-60.5 294.5zM197 717 q0 -119 45.5 -226t126.5 -188l718 924q-141 82 -299 82q-160 0 -296.5 -79.5t-215.5 -216t-79 -296.5zM487 209q141 -82 301 -82t296 79t215 215t79 296q0 119 -45 227t-125 189zM590 1788l139 -272h117l-141 272h-115z" />
<glyph unicode="&#xd3;" horiz-adv-x="1574" d="M41 717q0 152 59 290t159.5 238.5t238.5 159.5t290 59q219 0 396 -114l90 114l119 -94l-88 -115q108 -103 168.5 -242t60.5 -296q0 -203 -100 -375t-271.5 -272.5t-374.5 -100.5q-213 0 -397 115l-88 -115l-121 94l88 115q-108 105 -168.5 244.5t-60.5 294.5zM197 717 q0 -119 45.5 -226t126.5 -188l718 924q-141 82 -299 82q-160 0 -296.5 -79.5t-215.5 -216t-79 -296.5zM487 209q141 -82 301 -82t296 79t215 215t79 296q0 119 -45 227t-125 189zM760 1516l141 272h117l-141 -272h-117z" />
<glyph unicode="&#xd4;" horiz-adv-x="1574" d="M41 717q0 152 59 290t159.5 238.5t238.5 159.5t290 59q219 0 396 -114l90 114l119 -94l-88 -115q108 -103 168.5 -242t60.5 -296q0 -203 -100 -375t-271.5 -272.5t-374.5 -100.5q-213 0 -397 115l-88 -115l-121 94l88 115q-108 105 -168.5 244.5t-60.5 294.5zM197 717 q0 -119 45.5 -226t126.5 -188l718 924q-141 82 -299 82q-160 0 -296.5 -79.5t-215.5 -216t-79 -296.5zM487 209q141 -82 301 -82t296 79t215 215t79 296q0 119 -45 227t-125 189zM600 1516l139 272h97l139 -272h-111l-78 159l-77 -159h-109z" />
<glyph unicode="&#xd5;" horiz-adv-x="1574" d="M41 717q0 152 59 290t159.5 238.5t238.5 159.5t290 59q219 0 396 -114l90 114l119 -94l-88 -115q108 -103 168.5 -242t60.5 -296q0 -203 -100 -375t-271.5 -272.5t-374.5 -100.5q-213 0 -397 115l-88 -115l-121 94l88 115q-108 105 -168.5 244.5t-60.5 294.5zM197 717 q0 -119 45.5 -226t126.5 -188l718 924q-141 82 -299 82q-160 0 -296.5 -79.5t-215.5 -216t-79 -296.5zM487 209q141 -82 301 -82t296 79t215 215t79 296q0 119 -45 227t-125 189zM514 1552v164h533v-164h-533z" />
<glyph unicode="&#xd6;" horiz-adv-x="1574" d="M41 717q0 152 59 290t159.5 238.5t238.5 159.5t290 59q219 0 396 -114l90 114l119 -94l-88 -115q108 -103 168.5 -242t60.5 -296q0 -203 -100 -375t-271.5 -272.5t-374.5 -100.5q-213 0 -397 115l-88 -115l-121 94l88 115q-108 105 -168.5 244.5t-60.5 294.5zM197 717 q0 -119 45.5 -226t126.5 -188l718 924q-141 82 -299 82q-160 0 -296.5 -79.5t-215.5 -216t-79 -296.5zM487 209q141 -82 301 -82t296 79t215 215t79 296q0 119 -45 227t-125 189zM643 1516h117v116h-117v-116zM840 1516h116v116h-116v-116z" />
<glyph unicode="&#xd7;" horiz-adv-x="1112" d="M41 168l815 1065h174l-815 -1065h-174z" />
<glyph unicode="&#xd8;" horiz-adv-x="1574" d="M41 717q0 152 59 290t159.5 238.5t238.5 159.5t290 59q219 0 396 -114l90 114l119 -94l-88 -115q108 -103 168.5 -242t60.5 -296q0 -203 -100 -375t-271.5 -272.5t-374.5 -100.5q-213 0 -397 115l-88 -115l-121 94l88 115q-108 105 -168.5 244.5t-60.5 294.5zM197 717 q0 -119 45.5 -226t126.5 -188l718 924q-141 82 -299 82q-160 0 -296.5 -79.5t-215.5 -216t-79 -296.5zM487 209q141 -82 301 -82t296 79t215 215t79 296q0 119 -45 227t-125 189z" />
<glyph unicode="&#xd9;" horiz-adv-x="1515" d="M41 684v750h156v-750q0 -127 54 -239.5t148 -190.5l920 1180h156v-750q0 -145 -57 -278t-153 -229t-229 -153t-278 -57t-278 57t-229 153t-153 229t-57 278zM522 1788l140 -272h116l-141 272h-115zM530 172q106 -47 228 -47q152 0 281 74.5t204.5 203.5t75.5 281v500z " />
<glyph unicode="&#xda;" horiz-adv-x="1515" d="M41 684v750h156v-750q0 -127 54 -239.5t148 -190.5l920 1180h156v-750q0 -145 -57 -278t-153 -229t-229 -153t-278 -57t-278 57t-229 153t-153 229t-57 278zM530 172q106 -47 228 -47q152 0 281 74.5t204.5 203.5t75.5 281v500zM758 1516l141 272h117l-142 -272h-116z " />
<glyph unicode="&#xdb;" horiz-adv-x="1515" d="M41 684v750h156v-750q0 -127 54 -239.5t148 -190.5l920 1180h156v-750q0 -145 -57 -278t-153 -229t-229 -153t-278 -57t-278 57t-229 153t-153 229t-57 278zM530 172q106 -47 228 -47q152 0 281 74.5t204.5 203.5t75.5 281v500zM592 1516l139 272h96l140 -272h-111 l-78 159l-78 -159h-108z" />
<glyph unicode="&#xdc;" horiz-adv-x="1515" d="M41 684v750h156v-750q0 -127 54 -239.5t148 -190.5l920 1180h156v-750q0 -145 -57 -278t-153 -229t-229 -153t-278 -57t-278 57t-229 153t-153 229t-57 278zM530 172q106 -47 228 -47q152 0 281 74.5t204.5 203.5t75.5 281v500zM649 1516h117v116h-117v-116zM846 1516 h117v116h-117v-116z" />
<glyph unicode="&#xdd;" horiz-adv-x="1468" d="M41 1434h195l339 -494l347 494h161l-428 -611l80 -114l498 725h194l-614 -875v-102h154v-158h-154v-299h-158v299h-153v158h153v102zM825 1516l142 272h116l-141 -272h-117z" />
<glyph unicode="&#xde;" horiz-adv-x="1179" d="M41 0v1434h156v-361h585q148 0 252.5 -104t104.5 -252t-104.5 -252.5t-252.5 -104.5h-585v-360h-156zM197 516h227l313 402h-540v-402zM582 516h200q83 0 141 59t58 142q0 56 -28.5 103.5t-75.5 72.5z" />
<glyph unicode="&#xe0;" d="M41 0l731 1434h135l735 -1434h-167l-134 231h-700l-135 -231h-164l133 231h-133l-135 -231h-166zM408 399h565l-266 533zM616 1788l140 -272h116l-141 272h-115zM772 1100l369 -701h131l-430 832z" />
<glyph unicode="&#xe1;" d="M41 0l731 1434h135l735 -1434h-167l-134 231h-700l-135 -231h-164l133 231h-133l-135 -231h-166zM408 399h565l-266 533zM772 1100l369 -701h131l-430 832zM807 1516l141 272h117l-141 -272h-117z" />
<glyph unicode="&#xe2;" d="M41 0l731 1434h135l735 -1434h-167l-134 231h-700l-135 -231h-164l133 231h-133l-135 -231h-166zM408 399h565l-266 533zM653 1516l140 272h96l139 -272h-110l-78 159l-78 -159h-109zM772 1100l369 -701h131l-430 832z" />
<glyph unicode="&#xe3;" d="M41 0l731 1434h135l735 -1434h-167l-134 231h-700l-135 -231h-164l133 231h-133l-135 -231h-166zM408 399h565l-266 533zM575 1552v164h533v-164h-533zM772 1100l369 -701h131l-430 832z" />
<glyph unicode="&#xe4;" d="M41 0l731 1434h135l735 -1434h-167l-134 231h-700l-135 -231h-164l133 231h-133l-135 -231h-166zM408 399h565l-266 533zM686 1516h117v116h-117v-116zM772 1100l369 -701h131l-430 832zM883 1516h116v116h-116v-116z" />
<glyph unicode="&#xe5;" d="M41 0l731 1434h135l735 -1434h-167l-134 231h-700l-135 -231h-164l133 231h-133l-135 -231h-166zM408 399h565l-266 533zM725 1634q0 -49 34.5 -83.5t84.5 -34.5t85.5 34.5t35.5 83.5q0 51 -35.5 86t-85.5 35t-84.5 -35t-34.5 -86zM772 1100l369 -701h131l-430 832z M805 1634q0 17 11 29t28 12t28 -12t11 -29t-11 -28t-28 -11t-28 11t-11 28z" />
<glyph unicode="&#xe7;" horiz-adv-x="1384" d="M41 713q0 150 56 286t161 242q106 106 242.5 162.5t285.5 56.5q150 0 286.5 -56.5t242.5 -162.5l28 -27l-110 -110l-29 26q-83 85 -191 130t-227 45q-112 0 -215 -41v-1100q103 -41 215 -41q246 0 418 172l29 29l110 -111l-28 -29q-99 -99 -227.5 -155t-270.5 -62v-143 h-51q-41 0 -68 -27q-29 -29 -29 -69t29 -68q28 -29 68.5 -29t69.5 29l69 -68q-58 -58 -139.5 -59t-138.5 55q-57 58 -56.5 140t58.5 139q36 39 94 53v49q-269 22 -465 215q-104 106 -160.5 243t-56.5 286zM203 635q25 -196 166 -340q46 -40 47 -41v381h-213zM203 791h213 v383q-24 -21 -47 -44q-141 -141 -166 -339z" />
<glyph unicode="&#xe8;" horiz-adv-x="1601" d="M41 0v1434h1487v-158h-1084l865 -651h155v-158h-1265v-309h1362v-158h-1520zM199 625h864l-864 651v-651zM672 1788h116l142 -272h-117z" />
<glyph unicode="&#xe9;" horiz-adv-x="1601" d="M41 0v1434h1487v-158h-1084l865 -651h155v-158h-1265v-309h1362v-158h-1520zM199 625h864l-864 651v-651zM805 1516l141 272h117l-141 -272h-117z" />
<glyph unicode="&#xea;" horiz-adv-x="1601" d="M41 0v1434h1487v-158h-1084l865 -651h155v-158h-1265v-309h1362v-158h-1520zM199 625h864l-864 651v-651zM676 1516l139 272h96l140 -272h-111l-78 159l-78 -159h-108z" />
<glyph unicode="&#xeb;" horiz-adv-x="1601" d="M41 0v1434h1487v-158h-1084l865 -651h155v-158h-1265v-309h1362v-158h-1520zM199 625h864l-864 651v-651zM721 1516h117v116h-117v-116zM918 1516h116v116h-116v-116z" />
<glyph unicode="&#xec;" horiz-adv-x="1212" d="M41 0v158h485v1118h-485v158h1130v-158h-487v-744l293 -374h194v-158h-1130zM389 1788l139 -272h117l-141 272h-115zM684 158h135l-135 172v-172z" />
<glyph unicode="&#xed;" horiz-adv-x="1212" d="M41 0v158h485v1118h-485v158h1130v-158h-487v-744l293 -374h194v-158h-1130zM557 1516l141 272h117l-141 -272h-117zM684 158h135l-135 172v-172z" />
<glyph unicode="&#xee;" horiz-adv-x="1212" d="M41 0v158h485v1118h-485v158h1130v-158h-487v-744l293 -374h194v-158h-1130zM428 1516l139 272h97l139 -272h-111l-78 159l-77 -159h-109zM684 158h135l-135 172v-172z" />
<glyph unicode="&#xef;" horiz-adv-x="1212" d="M41 0v158h485v1118h-485v158h1130v-158h-487v-744l293 -374h194v-158h-1130zM451 1516h116v116h-116v-116zM647 1516h117v116h-117v-116zM684 158h135l-135 172v-172z" />
<glyph unicode="&#xf1;" horiz-adv-x="1744" d="M41 0v1434h174l1331 -1225v211l-465 428l131 100l334 -307v793h158v-1434h-162l-1343 1241v-213l422 -389l-132 -100l-290 268v-807h-158zM635 1552v162h526v-162h-526z" />
<glyph unicode="&#xf2;" horiz-adv-x="1574" d="M41 717q0 152 59 290t159.5 238.5t238.5 159.5t290 59q219 0 396 -114l90 114l119 -94l-88 -115q108 -103 168.5 -242t60.5 -296q0 -203 -100 -375t-271.5 -272.5t-374.5 -100.5q-213 0 -397 115l-88 -115l-121 94l88 115q-108 105 -168.5 244.5t-60.5 294.5zM197 717 q0 -119 45.5 -226t126.5 -188l718 924q-141 82 -299 82q-160 0 -296.5 -79.5t-215.5 -216t-79 -296.5zM487 209q141 -82 301 -82t296 79t215 215t79 296q0 119 -45 227t-125 189zM590 1788l139 -272h117l-141 272h-115z" />
<glyph unicode="&#xf3;" horiz-adv-x="1574" d="M41 717q0 152 59 290t159.5 238.5t238.5 159.5t290 59q219 0 396 -114l90 114l119 -94l-88 -115q108 -103 168.5 -242t60.5 -296q0 -203 -100 -375t-271.5 -272.5t-374.5 -100.5q-213 0 -397 115l-88 -115l-121 94l88 115q-108 105 -168.5 244.5t-60.5 294.5zM197 717 q0 -119 45.5 -226t126.5 -188l718 924q-141 82 -299 82q-160 0 -296.5 -79.5t-215.5 -216t-79 -296.5zM487 209q141 -82 301 -82t296 79t215 215t79 296q0 119 -45 227t-125 189zM760 1516l141 272h117l-141 -272h-117z" />
<glyph unicode="&#xf4;" horiz-adv-x="1574" d="M41 717q0 152 59 290t159.5 238.5t238.5 159.5t290 59q219 0 396 -114l90 114l119 -94l-88 -115q108 -103 168.5 -242t60.5 -296q0 -203 -100 -375t-271.5 -272.5t-374.5 -100.5q-213 0 -397 115l-88 -115l-121 94l88 115q-108 105 -168.5 244.5t-60.5 294.5zM197 717 q0 -119 45.5 -226t126.5 -188l718 924q-141 82 -299 82q-160 0 -296.5 -79.5t-215.5 -216t-79 -296.5zM487 209q141 -82 301 -82t296 79t215 215t79 296q0 119 -45 227t-125 189zM600 1516l139 272h97l139 -272h-111l-78 159l-77 -159h-109z" />
<glyph unicode="&#xf5;" horiz-adv-x="1574" d="M41 717q0 152 59 290t159.5 238.5t238.5 159.5t290 59q219 0 396 -114l90 114l119 -94l-88 -115q108 -103 168.5 -242t60.5 -296q0 -203 -100 -375t-271.5 -272.5t-374.5 -100.5q-213 0 -397 115l-88 -115l-121 94l88 115q-108 105 -168.5 244.5t-60.5 294.5zM197 717 q0 -119 45.5 -226t126.5 -188l718 924q-141 82 -299 82q-160 0 -296.5 -79.5t-215.5 -216t-79 -296.5zM487 209q141 -82 301 -82t296 79t215 215t79 296q0 119 -45 227t-125 189zM514 1552v164h533v-164h-533z" />
<glyph unicode="&#xf6;" horiz-adv-x="1574" d="M41 717q0 152 59 290t159.5 238.5t238.5 159.5t290 59q219 0 396 -114l90 114l119 -94l-88 -115q108 -103 168.5 -242t60.5 -296q0 -203 -100 -375t-271.5 -272.5t-374.5 -100.5q-213 0 -397 115l-88 -115l-121 94l88 115q-108 105 -168.5 244.5t-60.5 294.5zM197 717 q0 -119 45.5 -226t126.5 -188l718 924q-141 82 -299 82q-160 0 -296.5 -79.5t-215.5 -216t-79 -296.5zM487 209q141 -82 301 -82t296 79t215 215t79 296q0 119 -45 227t-125 189zM643 1516h117v116h-117v-116zM840 1516h116v116h-116v-116z" />
<glyph unicode="&#xf7;" horiz-adv-x="985" d="M41 618h903v156h-903v-156zM414 360h155v156h-155v-156zM414 877h155v155h-155v-155z" />
<glyph unicode="&#xf8;" horiz-adv-x="1574" d="M41 717q0 152 59 290t159.5 238.5t238.5 159.5t290 59q219 0 396 -114l90 114l119 -94l-88 -115q108 -103 168.5 -242t60.5 -296q0 -203 -100 -375t-271.5 -272.5t-374.5 -100.5q-213 0 -397 115l-88 -115l-121 94l88 115q-108 105 -168.5 244.5t-60.5 294.5zM197 717 q0 -119 45.5 -226t126.5 -188l718 924q-141 82 -299 82q-160 0 -296.5 -79.5t-215.5 -216t-79 -296.5zM487 209q141 -82 301 -82t296 79t215 215t79 296q0 119 -45 227t-125 189z" />
<glyph unicode="&#xf9;" horiz-adv-x="1515" d="M41 684v750h156v-750q0 -127 54 -239.5t148 -190.5l920 1180h156v-750q0 -145 -57 -278t-153 -229t-229 -153t-278 -57t-278 57t-229 153t-153 229t-57 278zM522 1788l140 -272h116l-141 272h-115zM530 172q106 -47 228 -47q152 0 281 74.5t204.5 203.5t75.5 281v500z " />
<glyph unicode="&#xfa;" horiz-adv-x="1515" d="M41 684v750h156v-750q0 -127 54 -239.5t148 -190.5l920 1180h156v-750q0 -145 -57 -278t-153 -229t-229 -153t-278 -57t-278 57t-229 153t-153 229t-57 278zM530 172q106 -47 228 -47q152 0 281 74.5t204.5 203.5t75.5 281v500zM758 1516l141 272h117l-142 -272h-116z " />
<glyph unicode="&#xfb;" horiz-adv-x="1515" d="M41 684v750h156v-750q0 -127 54 -239.5t148 -190.5l920 1180h156v-750q0 -145 -57 -278t-153 -229t-229 -153t-278 -57t-278 57t-229 153t-153 229t-57 278zM530 172q106 -47 228 -47q152 0 281 74.5t204.5 203.5t75.5 281v500zM592 1516l139 272h96l140 -272h-111 l-78 159l-78 -159h-108z" />
<glyph unicode="&#xfc;" horiz-adv-x="1515" d="M41 684v750h156v-750q0 -127 54 -239.5t148 -190.5l920 1180h156v-750q0 -145 -57 -278t-153 -229t-229 -153t-278 -57t-278 57t-229 153t-153 229t-57 278zM530 172q106 -47 228 -47q152 0 281 74.5t204.5 203.5t75.5 281v500zM649 1516h117v116h-117v-116zM846 1516 h117v116h-117v-116z" />
<glyph unicode="&#xfd;" horiz-adv-x="1468" d="M41 1434h195l339 -494l347 494h161l-428 -611l80 -114l498 725h194l-614 -875v-102h154v-158h-154v-299h-158v299h-153v158h153v102zM825 1516l142 272h116l-141 -272h-117z" />
<glyph unicode="&#xfe;" horiz-adv-x="1384" d="M41 0v1434h156v-361h790q148 0 252 -104t104 -252t-104 -252.5t-252 -104.5h-790v-360h-156zM197 516h432l313 402h-745v-402zM786 516h201q83 0 141 59t58 142q0 56 -29 103.5t-76 72.5z" />
<glyph unicode="&#xff;" horiz-adv-x="1468" d="M41 1434h195l339 -494l347 494h161l-428 -611l80 -114l498 725h194l-614 -875v-102h154v-158h-154v-299h-158v299h-153v158h153v102zM594 1516h117v116h-117v-116zM791 1516h116v116h-116v-116z" />
<glyph unicode="&#x178;" horiz-adv-x="1468" d="M41 1434h195l339 -494l347 494h161l-428 -611l80 -114l498 725h194l-614 -875v-102h154v-158h-154v-299h-158v299h-153v158h153v102zM594 1516h117v116h-117v-116zM791 1516h116v116h-116v-116z" />
<glyph unicode="&#x2c6;" horiz-adv-x="456" d="M41 1516l139 272h96l140 -272h-111l-78 159l-77 -159h-109z" />
<glyph unicode="&#x2dc;" horiz-adv-x="614" d="M41 1552v164h532v-164h-532z" />
<glyph unicode="&#x2000;" horiz-adv-x="894" />
<glyph unicode="&#x2001;" horiz-adv-x="1788" />
<glyph unicode="&#x2002;" horiz-adv-x="894" />
<glyph unicode="&#x2003;" horiz-adv-x="1788" />
<glyph unicode="&#x2004;" horiz-adv-x="596" />
<glyph unicode="&#x2005;" horiz-adv-x="447" />
<glyph unicode="&#x2006;" horiz-adv-x="298" />
<glyph unicode="&#x2007;" horiz-adv-x="298" />
<glyph unicode="&#x2008;" horiz-adv-x="223" />
<glyph unicode="&#x2009;" horiz-adv-x="357" />
<glyph unicode="&#x200a;" horiz-adv-x="99" />
<glyph unicode="&#x2010;" horiz-adv-x="1013" d="M41 537h932v155h-932v-155z" />
<glyph unicode="&#x2011;" horiz-adv-x="1013" d="M41 537h932v155h-932v-155z" />
<glyph unicode="&#x2012;" horiz-adv-x="1013" d="M41 537h932v155h-932v-155z" />
<glyph unicode="&#x2013;" horiz-adv-x="849" d="M41 537h768v155h-768v-155z" />
<glyph unicode="&#x2014;" horiz-adv-x="1505" d="M41 537h1423v155h-1423v-155z" />
<glyph unicode="&#x201a;" horiz-adv-x="321" d="M41 -276h96l144 276h-119z" />
<glyph unicode="&#x201e;" horiz-adv-x="321" d="M41 -276h96l144 276h-119z" />
<glyph unicode="&#x2022;" horiz-adv-x="423" d="M41 700q0 71 50 120.5t122 49.5q71 0 120.5 -50t49.5 -120q0 -71 -50 -121.5t-120 -50.5q-72 0 -122 50.5t-50 121.5z" />
<glyph unicode="&#x2026;" horiz-adv-x="227" d="M31 0v156h155v-156h-155z" />
<glyph unicode="&#x202f;" horiz-adv-x="357" />
<glyph unicode="&#x2039;" horiz-adv-x="622" d="M41 637l397 407l144 -77l-322 -330l322 -332l-144 -76z" />
<glyph unicode="&#x203a;" horiz-adv-x="622" d="M41 305l321 332l-321 330l143 77l398 -407l-398 -408z" />
<glyph unicode="&#x205f;" horiz-adv-x="447" />
<glyph unicode="&#x20ac;" horiz-adv-x="1540" d="M41 479l65 158h78q-4 27 -4 80t4 80h-143l65 157h111q37 108 105 202.5t159.5 165.5t209 112t245.5 41q313 0 563 -250l-110 -113q-109 109 -219 157t-234 48q-187 0 -335 -103.5t-214 -259.5h717l-66 -157h-696q-9 -80 0 -160h762l-66 -158h-651q66 -155 214 -258.5 t335 -103.5q129 0 238 49.5t215 155.5l110 -113q-250 -250 -563 -250q-152 0 -289.5 57.5t-245.5 165.5q-121 116 -184 297h-176z" />
<glyph unicode="&#x25fc;" horiz-adv-x="1433" d="M0 0v1434h1434v-1434h-1434z" />
</font>
</defs>
</svg>
